<mxfile host="app.diagrams.net" modified="2023-12-04T01:50:11.939Z" agent="Mozilla/5.0 (Windows NT 10.0; Win64; x64) AppleWebKit/537.36 (KHTML, like Gecko) Chrome/119.0.0.0 Safari/537.36" version="22.1.5" etag="tSrmdNHqXeUAGv2FrK8W" type="github">
  <diagram name="PÃ¡gina-1" id="r3RCuTW2YN0E77MjmuXs">
    <mxGraphModel>
      <root>
        <mxCell id="0" />
        <mxCell id="1" parent="0" />
      </root>
    </mxGraphModel>
  </diagram>
</mxfile>
